<!-- Generated by IcoMoon.io -->
<svg version="1.1" xmlns="http://www.w3.org/2000/svg" width="69" height="32" viewBox="0 0 69 32">
<title>Grupo4</title>
<path fill="#f5f4fa" d="M1.043 1.268l66.532-1.008c0.561-0.009 1.023 0.439 1.031 1l0.431 28.441c0.008 0.561-0.439 1.023-1 1.031l-66.532 1.008c-0.561 0.009-1.023-0.439-1.031-1l-0.431-28.441c-0.009-0.561 0.439-1.023 1-1.031z"></path>
<path fill="#2196f3" d="M43.317 9.491c-0.037-0.106-0.13-0.183-0.242-0.198l-1.064-0.138-0.489-0.954c-0.103-0.201-0.435-0.196-0.531 0.008l-0.46 0.969-1.059 0.17c-0.111 0.018-0.203 0.097-0.236 0.205s-0.003 0.225 0.080 0.303l0.779 0.737-0.165 1.060c-0.017 0.111 0.030 0.223 0.122 0.288 0.093 0.066 0.214 0.072 0.313 0.018l0.941-0.514 0.957 0.485c0.044 0.022 0.091 0.033 0.139 0.032 0.061-0.001 0.122-0.021 0.173-0.059 0.090-0.068 0.134-0.181 0.113-0.292l-0.197-1.054 0.757-0.76c0.080-0.080 0.107-0.198 0.070-0.305zM41.96 10.249c-0.069 0.069-0.099 0.168-0.081 0.264l0.115 0.617-0.56-0.284c-0.044-0.022-0.091-0.033-0.139-0.032s-0.094 0.013-0.138 0.036l-0.551 0.301 0.097-0.62c0.015-0.096-0.018-0.194-0.089-0.261l-0.457-0.432 0.62-0.1c0.096-0.015 0.179-0.077 0.221-0.165l0.269-0.567 0.286 0.559c0.044 0.087 0.129 0.146 0.226 0.159l0.623 0.081-0.443 0.445z"></path>
<path fill="#2196f3" d="M40.207 18.427l-0.593 0.009 0.009 0.593 0.593-0.009-0.009-0.593z"></path>
<path fill="#2196f3" d="M40.225 19.612l-0.593 0.009 0.009 0.593 0.593-0.009-0.009-0.593z"></path>
<path fill="#2196f3" d="M40.808 19.010l-0.593 0.009 0.009 0.593 0.593-0.009-0.009-0.593z"></path>
<path fill="#2196f3" d="M39.623 19.028l-0.593 0.009 0.009 0.593 0.593-0.009-0.009-0.593z"></path>
<path fill="#2196f3" d="M38.182 21.717l-0.593 0.009 0.009 0.593 0.593-0.009-0.009-0.593z"></path>
<path fill="#2196f3" d="M38.2 22.902l-0.593 0.009 0.009 0.593 0.593-0.009-0.009-0.593z"></path>
<path fill="#2196f3" d="M38.784 22.301l-0.593 0.009 0.009 0.593 0.593-0.009-0.009-0.593z"></path>
<path fill="#2196f3" d="M37.599 22.319l-0.593 0.009 0.009 0.593 0.593-0.009-0.009-0.593z"></path>
<path fill="#2196f3" d="M34.609 20.586l-0.593 0.009 0.009 0.593 0.593-0.009-0.009-0.593z"></path>
<path fill="#2196f3" d="M34.627 21.771l-0.593 0.009 0.009 0.593 0.593-0.009-0.009-0.593z"></path>
<path fill="#2196f3" d="M35.211 21.169l-0.593 0.009 0.009 0.593 0.593-0.009-0.009-0.593z"></path>
<path fill="#2196f3" d="M34.026 21.187l-0.593 0.009 0.009 0.593 0.593-0.009-0.009-0.593z"></path>
<path fill="#2196f3" d="M28.827 10.598l-0.593 0.009 0.009 0.593 0.593-0.009-0.009-0.593z"></path>
<path fill="#2196f3" d="M28.845 11.783l-0.593 0.009 0.009 0.593 0.593-0.009-0.009-0.593z"></path>
<path fill="#2196f3" d="M29.429 11.182l-0.593 0.009 0.009 0.593 0.593-0.009-0.009-0.593z"></path>
<path fill="#2196f3" d="M28.244 11.2l-0.593 0.009 0.009 0.593 0.593-0.009-0.009-0.593z"></path>
<path fill="#212121" d="M39.365 14.904c-0.163-0.213-0.399-0.348-0.666-0.381-0.268-0.034-0.531 0.040-0.741 0.207l-0.688 0.544-1.042 0.803-0.759-0.289c1.336-0.624 2.256-1.983 2.232-3.545-0.032-2.124-1.793-3.825-3.925-3.793s-3.841 1.786-3.808 3.91c0.012 0.77 0.253 1.482 0.654 2.078l-1.535 0.010c-0.001 0-0.002 0-0.003 0-0.005 0-0.009 0.002-0.013 0.003-0.029 0.002-0.058 0.008-0.086 0.018-0.007 0.003-0.014 0.004-0.021 0.008-0.004 0.002-0.007 0.002-0.011 0.004l-1.783 0.914c-0 0-0 0-0 0l-1.044 0.522c-0.011 0.005-0.023 0.012-0.035 0.020-0.415 0.285-0.549 0.836-0.313 1.28 0.126 0.236 0.337 0.409 0.594 0.485 0.099 0.029 0.2 0.043 0.3 0.041 0.161-0.002 0.32-0.044 0.465-0.124l0.765-0.422 1.248-0.668 0.754-0.016-2.977 3.054c-0 0-0.001 0-0.001 0.001l-0.732 0.752c-0.173 0.177-0.266 0.411-0.262 0.658s0.104 0.478 0.282 0.651c0.183 0.177 0.422 0.263 0.659 0.26s0.473-0.097 0.651-0.28l0.719-0.738 0.956-0.737 0.508 0.491-0.964 0.989c-0 0-0.001 0-0.001 0.001l-0.732 0.752c-0.173 0.177-0.266 0.411-0.262 0.658s0.104 0.478 0.282 0.651c0.183 0.177 0.422 0.263 0.66 0.26s0.474-0.097 0.651-0.28l1.905-1.955c0-0 0-0.001 0-0.001l0.552-0.564-0.002-0.002c0.004-0.004 0.008-0.005 0.012-0.009l2.822-3.187 1.932 0.245c0.014 0.002 0.028 0.003 0.042 0.002 0.036-0.001 0.070-0.010 0.104-0.023 0.010-0.004 0.018-0.009 0.027-0.013 0.010-0.006 0.022-0.009 0.032-0.016l1.767-1.212c0.006-0.005 0.010-0.012 0.016-0.017 0.007-0.006 0.016-0.008 0.022-0.015l0.696-0.672c0.362-0.35 0.404-0.915 0.098-1.314zM26.85 17.1c-0.096 0.053-0.204 0.065-0.31 0.033-0.104-0.031-0.189-0.1-0.24-0.195-0.092-0.173-0.044-0.386 0.111-0.503l0.724-0.362 0.183 0.511 0.077 0.215-0.547 0.301zM28.777 16.055l-0.853 0.457-0.254-0.709 1.117-0.573-0.009 0.825zM37.109 12.251c0.008 0.51-0.107 0.993-0.311 1.427l-2.339-1.020c-0.029-0.318-0.199-0.594-0.45-0.764l0.772-2.712c1.327 0.4 2.305 1.618 2.327 3.069zM30.561 12.35c-0.027-1.797 1.42-3.281 3.225-3.309 0.14-0.002 0.278 0.008 0.414 0.023l-0.756 2.653c-0.011-0-0.021-0.003-0.032-0.003-0.573 0.009-1.033 0.481-1.025 1.053s0.483 1.030 1.056 1.021c0.386-0.006 0.716-0.224 0.891-0.538l2.16 0.942c-0.585 0.813-1.532 1.351-2.611 1.367-1.805 0.027-3.296-1.412-3.324-3.209zM33.876 12.744c0.004 0.245-0.194 0.447-0.441 0.451s-0.451-0.193-0.454-0.438c-0.004-0.245 0.194-0.447 0.441-0.451s0.451 0.193 0.454 0.438zM27.098 21.195c-0.129 0.132-0.342 0.135-0.474 0.008-0.064-0.062-0.1-0.145-0.101-0.233s0.032-0.172 0.094-0.236l0.526-0.541 0.48 0.464-0.525 0.538zM28.915 23.241c-0.129 0.132-0.342 0.136-0.475 0.008-0.064-0.062-0.1-0.145-0.101-0.233s0.032-0.172 0.094-0.236l0.526-0.541 0.48 0.464-0.525 0.539zM30.82 21.285c-0 0-0 0-0.001 0.001l-0.965 0.993-0.48-0.464 0.965-0.99c0 0 0 0 0-0s0-0 0.001-0.001c0.022-0.023 0.036-0.049 0.049-0.076 0.004-0.008 0.011-0.014 0.014-0.022 0.009-0.023 0.010-0.048 0.013-0.072 0.002-0.014 0.007-0.026 0.007-0.040-0-0.020-0.008-0.039-0.012-0.058-0.004-0.018-0.004-0.036-0.011-0.053-0.012-0.028-0.032-0.052-0.052-0.076-0.006-0.006-0.008-0.015-0.014-0.021 0 0 0 0-0 0s-0-0.001-0-0.001l-0.906-0.875c-0.010-0.009-0.022-0.013-0.032-0.021-0.016-0.012-0.031-0.023-0.049-0.031s-0.034-0.013-0.052-0.017c-0.019-0.005-0.037-0.009-0.057-0.010-0.018-0.001-0.035 0.001-0.053 0.003-0.020 0.003-0.038 0.006-0.058 0.012s-0.035 0.016-0.052 0.026c-0.011 0.006-0.023 0.009-0.034 0.017l-0.974 0.75-0.508-0.491 1.313-1.346 2.458 2.346-0.507 0.518zM34.548 17.33c-0.009-0.001-0.017 0.002-0.025 0.002-0.022-0.001-0.042 0.001-0.064 0.005-0.017 0.003-0.033 0.007-0.049 0.013-0.019 0.007-0.036 0.016-0.053 0.027s-0.032 0.021-0.046 0.035c-0.007 0.006-0.016 0.009-0.022 0.017l-2.567 2.898-2.44-2.328 1.55-1.589c0.114-0.117 0.112-0.305-0.005-0.419-0.059-0.057-0.136-0.085-0.213-0.084v-0l-1.233 0.026 0.002-0.893 1.724-0.011c0.714 0.708 1.7 1.142 2.785 1.125 0.243-0.004 0.48-0.032 0.71-0.079 0.023 0.017 0.045 0.035 0.073 0.046l1.347 0.513 0.198 0.91-1.672-0.212zM36.795 17.395l-0.187-0.863 0.794-0.612 0.536 0.69-1.144 0.785zM38.856 15.791l-0.459 0.443-0.528-0.679 0.456-0.361c0.085-0.068 0.194-0.096 0.3-0.084 0.107 0.014 0.203 0.068 0.269 0.154 0.123 0.16 0.106 0.387-0.039 0.527z"></path>
<path fill="#212121" d="M33.229 17.433l-1.208-1.167c-0.117-0.113-0.304-0.111-0.418 0.006l-1.172 1.203c-0.055 0.057-0.085 0.133-0.084 0.211s0.033 0.154 0.090 0.209l1.208 1.167c0.059 0.057 0.135 0.084 0.211 0.083s0.151-0.031 0.207-0.089l1.173-1.203c0.055-0.057 0.085-0.133 0.084-0.211s-0.034-0.154-0.091-0.209zM31.845 18.432l-0.782-0.755 0.759-0.779 0.782 0.755-0.759 0.779z"></path>
<path fill="#212121" d="M35.094 9.919l-0.134 0.578c0.040 0.009 0.969 0.236 0.983 1.179l0.593-0.009c-0.017-1.12-0.95-1.633-1.442-1.748z"></path>
<path fill="#212121" d="M36.545 12.259l-0.593 0.009 0.009 0.593 0.593-0.009-0.009-0.593z"></path>
</svg>
